<svg width="500" height="300" viewBox="0 0 500 300" xmlns="http://www.w3.org/2000/svg">
  <!-- Style definitions -->
  <style>
    .component { stroke: black; stroke-width: 2; fill: none; }
    .label { font-family: Arial; font-size: 12px; fill: black; }
    .arrow { marker-end: url(#arrowhead); }
  </style>
  
  <!-- Arrowhead marker definition -->
  <defs>
    <marker id="arrowhead" markerWidth="10" markerHeight="7" refX="9" refY="3.5" orient="auto">
      <polygon points="0 0, 10 3.5, 0 7" fill="black"/>
    </marker>
  </defs>
  
  <!-- Main circuit -->
  
  <!-- Voltage source -->
  <rect x="50" y="100" width="60" height="40" class="component"/>
  <text x="80" y="125" class="label" text-anchor="middle">0-30V</text>
  <text x="80" y="90" class="label" text-anchor="middle">V1</text>
  
  <!-- Positive terminal -->
  <line x1="110" y1="120" x2="140" y2="120" class="component"/>
  <circle cx="110" cy="120" r="3" fill="black"/>
  <text x="125" y="115" class="label">+</text>
  
  <!-- Negative terminal (ground) -->
  <line x1="50" y1="120" x2="20" y2="120" class="component"/>
  <line x1="20" y1="120" x2="20" y2="180" class="component"/>
  <line x1="10" y1="180" x2="30" y2="180" class="component"/>
  <line x1="15" y1="185" x2="25" y2="185" class="component"/>
  <line x1="18" y1="190" x2="22" y2="190" class="component"/>
  <text x="35" y="115" class="label">-</text>
  
  <!-- Resistor -->
  <rect x="140" y="100" width="60" height="40" class="component"/>
  <text x="170" y="125" class="label" text-anchor="middle">1kΩ</text>
  <text x="170" y="90" class="label" text-anchor="middle">R1</text>
  
  <!-- Connection to ammeter -->
  <line x1="200" y1="120" x2="220" y2="120" class="component"/>
  
  <!-- Ammeter -->
  <circle cx="240" cy="120" r="20" class="component"/>
  <text x="240" y="125" class="label" text-anchor="middle">A</text>
  <text x="240" y="150" class="label" text-anchor="middle">0-30mA</text>
  
  <!-- Connection to diode -->
  <line x1="260" y1="120" x2="280" y2="120" class="component"/>
  
  <!-- Zener Diode (reverse biased) -->
  <line x1="280" y1="100" x2="280" y2="140" class="component"/>
  <line x1="280" y1="100" x2="300" y2="120" class="component"/>
  <line x1="280" y1="140" x2="300" y2="120" class="component"/>
  <line x1="300" y1="120" x2="320" y2="120" class="component"/>
  <text x="300" y="90" class="label" text-anchor="middle">D1</text>
  <text x="300" y="160" class="label" text-anchor="middle">Zener</text>
  
  <!-- Cathode band -->
  <line x1="295" y1="140" x2="295" y2="135" class="component" stroke-width="3"/>
  
  <!-- Voltmeter connections -->
  <line x1="320" y1="120" x2="340" y2="120" class="component"/>
  <line x1="340" y1="120" x2="340" y2="180" class="component"/>
  <line x1="320" y1="180" x2="360" y2="180" class="component"/>
  <line x1="320" y1="180" x2="320" y2="120" class="component"/>
  
  <!-- Voltmeter -->
  <circle cx="340" cy="150" r="15" class="component"/>
  <text x="340" y="155" class="label" text-anchor="middle">V</text>
  
  <!-- Current direction (reverse bias) -->
  <line x1="160" y1="130" x2="200" y2="130" class="component arrow"/>
  <text x="180" y="125" class="label" text-anchor="middle">I</text>
</svg>